{
  "accessors": [
    {
      "bufferView": 2,
      "componentType": 5126,
      "count": 243,
      "max": [
        8.5410442352294922,
        8.5410442352294922,
        -0.27340999245643616
      ],
      "min": [
        -8.5410442352294922,
        -8.5410442352294922,
        -4.8587651252746582
      ],
      "type": "VEC3"
    },
    {
      "bufferView": 2,
      "byteOffset": 2916,
      "componentType": 5126,
      "count": 243,
      "max": [
        0.95908123254776001,
        0.95908153057098389,
        -0.2799089252948761
      ],
      "min": [
        -0.95908123254776001,
        -0.95908153057098389,
        -1
      ],
      "type": "VEC3"
    },
    {
      "bufferView": 3,
      "componentType": 5126,
      "count": 243,
      "max": [
        0.85524266958236694,
        1,
        0.95901203155517578,
        1
      ],
      "min": [
        -0.61981451511383057,
        -1,
        -0.95903795957565308,
        1
      ],
      "type": "VEC4"
    },
    {
      "bufferView": 1,
      "componentType": 5126,
      "count": 243,
      "max": [
        0.99000000953674316,
        0.99000000953674316
      ],
      "min": [
        0.0099999997764825821,
        0.031449999660253525
      ],
      "type": "VEC2"
    },
    {
      "bufferView": 0,
      "componentType": 5125,
      "count": 1152,
      "max": [
        242
      ],
      "min": [
        0
      ],
      "type": "SCALAR"
    },
    {
      "bufferView": 2,
      "byteOffset": 5832,
      "componentType": 5126,
      "count": 101,
      "max": [
        8.1858558654785156,
        8.1858596801757812,
        0.33454900979995728
      ],
      "min": [
        -8.1858577728271484,
        -8.185856819152832,
        -0.73806798458099365
      ],
      "type": "VEC3"
    },
    {
      "bufferView": 2,
      "byteOffset": 7044,
      "componentType": 5126,
      "count": 101,
      "max": [
        0.37285280227661133,
        0.37285280227661133,
        1
      ],
      "min": [
        -0.37285280227661133,
        -0.37285318970680237,
        0.92789041996002197
      ],
      "type": "VEC3"
    },
    {
      "bufferView": 1,
      "byteOffset": 1944,
      "componentType": 5126,
      "count": 101,
      "max": [
        1.26951003074646,
        1.2813010215759277
      ],
      "min": [
        -0.30723300576210022,
        -0.29544299840927124
      ],
      "type": "VEC2"
    },
    {
      "bufferView": 0,
      "byteOffset": 4608,
      "componentType": 5125,
      "count": 540,
      "max": [
        100
      ],
      "min": [
        0
      ],
      "type": "SCALAR"
    },
    {
      "bufferView": 2,
      "byteOffset": 8256,
      "componentType": 5126,
      "count": 7475,
      "max": [
        8.0666084289550781,
        7.4342799186706543,
        2.8459250926971436
      ],
      "min": [
        -7.8189940452575684,
        -7.517819881439209,
        -1.9135099649429321
      ],
      "type": "VEC3"
    },
    {
      "bufferView": 2,
      "byteOffset": 97956,
      "componentType": 5126,
      "count": 7475,
      "max": [
        0.99962973594665527,
        0.9999847412109375,
        0.99954837560653687
      ],
      "min": [
        -0.99835109710693359,
        -0.99999690055847168,
        -0.99999034404754639
      ],
      "type": "VEC3"
    },
    {
      "bufferView": 3,
      "byteOffset": 3888,
      "componentType": 5126,
      "count": 7475,
      "max": [
        0.9988558292388916,
        0.99963563680648804,
        0.99998748302459717,
        1
      ],
      "min": [
        -0.99951761960983276,
        -0.99988633394241333,
        -0.99988555908203125,
        1
      ],
      "type": "VEC4"
    },
    {
      "bufferView": 1,
      "byteOffset": 2752,
      "componentType": 5126,
      "count": 7475,
      "max": [
        0.99000000953674316,
        0.84801900386810303
      ],
      "min": [
        0.0099999997764825821,
        0.0099999997764825821
      ],
      "type": "VEC2"
    },
    {
      "bufferView": 0,
      "byteOffset": 6768,
      "componentType": 5125,
      "count": 33000,
      "max": [
        7474
      ],
      "min": [
        0
      ],
      "type": "SCALAR"
    },
    {
      "bufferView": 2,
      "byteOffset": 187656,
      "componentType": 5126,
      "count": 875,
      "max": [
        7.8727521896362305,
        7.5683121681213379,
        2.9657299518585205
      ],
      "min": [
        -7.6251368522644043,
        -7.6021561622619629,
        -2.0489640235900879
      ],
      "type": "VEC3"
    },
    {
      "bufferView": 2,
      "byteOffset": 198156,
      "componentType": 5126,
      "count": 875,
      "max": [
        0.97076737880706787,
        0.99926376342773438,
        0.99882525205612183
      ],
      "min": [
        -0.68642920255661011,
        -0.99960154294967651,
        -0.99944812059402466
      ],
      "type": "VEC3"
    },
    {
      "bufferView": 1,
      "byteOffset": 62552,
      "componentType": 5126,
      "count": 875,
      "max": [
        0.92853802442550659,
        0.94238400459289551
      ],
      "min": [
        -0.013741999864578247,
        0.10909499973058701
      ],
      "type": "VEC2"
    },
    {
      "bufferView": 0,
      "byteOffset": 138768,
      "componentType": 5125,
      "count": 3750,
      "max": [
        874
      ],
      "min": [
        0
      ],
      "type": "SCALAR"
    },
    {
      "bufferView": 2,
      "byteOffset": 208656,
      "componentType": 5126,
      "count": 1289,
      "max": [
        8.8661403656005859,
        9.0779247283935547,
        8.9895038604736328
      ],
      "min": [
        -8.8650274276733398,
        -9.0812854766845703,
        -0.43153500556945801
      ],
      "type": "VEC3"
    },
    {
      "bufferView": 2,
      "byteOffset": 224124,
      "componentType": 5126,
      "count": 1289,
      "max": [
        0.99998599290847778,
        0.9999956488609314,
        1
      ],
      "min": [
        -0.99998599290847778,
        -0.9999956488609314,
        -1
      ],
      "type": "VEC3"
    },
    {
      "bufferView": 3,
      "byteOffset": 123488,
      "componentType": 5126,
      "count": 1289,
      "max": [
        1,
        0.99996542930603027,
        0.99805307388305664,
        1
      ],
      "min": [
        -1,
        -0.99998205900192261,
        -0.97639375925064087,
        -1
      ],
      "type": "VEC4"
    },
    {
      "bufferView": 1,
      "byteOffset": 69552,
      "componentType": 5126,
      "count": 1289,
      "max": [
        0.99000000953674316,
        0.99000000953674316
      ],
      "min": [
        0.0099999997764825821,
        0.18727600574493408
      ],
      "type": "VEC2"
    },
    {
      "bufferView": 0,
      "byteOffset": 153768,
      "componentType": 5125,
      "count": 6444,
      "max": [
        1288
      ],
      "min": [
        0
      ],
      "type": "SCALAR"
    }
  ],
  "asset": {
    "extras": {
      "author": "Yana8601 (https://sketchfab.com/Yana8601)",
      "license": "CC-BY-4.0 (http://creativecommons.org/licenses/by/4.0/)",
      "source": "https://sketchfab.com/3d-models/strawberry-basket-1bc5925b6a9c46bdb979a62c93cffbfc",
      "title": "strawberry basket"
    },
    "generator": "Sketchfab-7.48.0",
    "version": "2.0"
  },
  "bufferViews": [
    {
      "buffer": 0,
      "byteLength": 179544,
      "byteOffset": 0,
      "name": "floatBufferViews",
      "target": 34963
    },
    {
      "buffer": 0,
      "byteLength": 79864,
      "byteOffset": 179544,
      "byteStride": 8,
      "name": "floatBufferViews",
      "target": 34962
    },
    {
      "buffer": 0,
      "byteLength": 239592,
      "byteOffset": 259408,
      "byteStride": 12,
      "name": "floatBufferViews",
      "target": 34962
    },
    {
      "buffer": 0,
      "byteLength": 144112,
      "byteOffset": 499000,
      "byteStride": 16,
      "name": "floatBufferViews",
      "target": 34962
    }
  ],
  "buffers": [
    {
      "byteLength": 643112,
      "uri": "scene.bin"
    }
  ],
  "images": [
    {
      "uri": "textures/bottominitialShadingGroup_baseColor.png"
    },
    {
      "uri": "textures/bottominitialShadingGroup_metallicRoughness.png"
    },
    {
      "uri": "textures/bottominitialShadingGroup_normal.png"
    },
    {
      "uri": "textures/initialShadingGroup_baseColor.jpeg"
    },
    {
      "uri": "textures/strawnutslambert8SG_baseColor.png"
    },
    {
      "uri": "textures/strawnutslambert8SG_normal.png"
    },
    {
      "uri": "textures/strawnutsphongE1SG_baseColor.png"
    },
    {
      "uri": "textures/top1initialShadingGroup_baseColor.png"
    },
    {
      "uri": "textures/top1initialShadingGroup_normal.png"
    }
  ],
  "materials": [
    {
      "doubleSided": true,
      "name": "bottominitialShadingGroup",
      "normalTexture": {
        "index": 2,
        "scale": 1,
        "texCoord": 0
      },
      "pbrMetallicRoughness": {
        "baseColorFactor": [
          1,
          1,
          1,
          1
        ],
        "baseColorTexture": {
          "index": 0,
          "texCoord": 0
        },
        "metallicFactor": 0,
        "metallicRoughnessTexture": {
          "index": 1,
          "texCoord": 0
        },
        "roughnessFactor": 1
      }
    },
    {
      "doubleSided": true,
      "name": "initialShadingGroup",
      "pbrMetallicRoughness": {
        "baseColorFactor": [
          1,
          1,
          1,
          1
        ],
        "baseColorTexture": {
          "index": 3,
          "texCoord": 0
        },
        "metallicFactor": 0,
        "roughnessFactor": 0.82488567073170727
      }
    },
    {
      "doubleSided": true,
      "name": "strawnutslambert8SG",
      "normalTexture": {
        "index": 5,
        "scale": 1,
        "texCoord": 0
      },
      "pbrMetallicRoughness": {
        "baseColorFactor": [
          0.89809873627453318,
          0.89809873627453318,
          0.89809873627453318,
          1
        ],
        "baseColorTexture": {
          "index": 4,
          "texCoord": 0
        },
        "metallicFactor": 0,
        "roughnessFactor": 0.1846841021281917
      }
    },
    {
      "alphaMode": "BLEND",
      "doubleSided": true,
      "name": "strawnutsphongE1SG",
      "pbrMetallicRoughness": {
        "baseColorFactor": [
          1,
          1,
          1,
          1
        ],
        "baseColorTexture": {
          "index": 6,
          "texCoord": 0
        },
        "metallicFactor": 0,
        "roughnessFactor": 0.59999999999999998
      }
    },
    {
      "doubleSided": true,
      "name": "top1initialShadingGroup",
      "normalTexture": {
        "index": 8,
        "scale": 1,
        "texCoord": 0
      },
      "pbrMetallicRoughness": {
        "baseColorFactor": [
          1,
          1,
          1,
          1
        ],
        "baseColorTexture": {
          "index": 7,
          "texCoord": 0
        },
        "metallicFactor": 0,
        "roughnessFactor": 0
      }
    }
  ],
  "meshes": [
    {
      "primitives": [
        {
          "attributes": {
            "NORMAL": 1,
            "POSITION": 0,
            "TANGENT": 2,
            "TEXCOORD_0": 3
          },
          "indices": 4,
          "material": 0,
          "mode": 4
        }
      ]
    },
    {
      "primitives": [
        {
          "attributes": {
            "NORMAL": 6,
            "POSITION": 5,
            "TEXCOORD_0": 7
          },
          "indices": 8,
          "material": 1,
          "mode": 4
        }
      ]
    },
    {
      "primitives": [
        {
          "attributes": {
            "NORMAL": 10,
            "POSITION": 9,
            "TANGENT": 11,
            "TEXCOORD_0": 12
          },
          "indices": 13,
          "material": 2,
          "mode": 4
        }
      ]
    },
    {
      "primitives": [
        {
          "attributes": {
            "NORMAL": 15,
            "POSITION": 14,
            "TEXCOORD_0": 16
          },
          "indices": 17,
          "material": 3,
          "mode": 4
        }
      ]
    },
    {
      "primitives": [
        {
          "attributes": {
            "NORMAL": 19,
            "POSITION": 18,
            "TANGENT": 20,
            "TEXCOORD_0": 21
          },
          "indices": 22,
          "material": 4,
          "mode": 4
        }
      ]
    }
  ],
  "nodes": [
    {
      "children": [
        1
      ],
      "name": "RootNode (gltf orientation matrix)",
      "rotation": [
        -0.70710678118654746,
        -0,
        -0,
        0.70710678118654757
      ]
    },
    {
      "children": [
        2
      ],
      "name": "RootNode (model correction matrix)"
    },
    {
      "children": [
        3,
        4,
        5,
        6,
        7
      ],
      "name": "scenestrw.obj.cleaner.materialmerger.gles"
    },
    {
      "mesh": 0,
      "name": ""
    },
    {
      "mesh": 1,
      "name": ""
    },
    {
      "mesh": 2,
      "name": ""
    },
    {
      "mesh": 3,
      "name": ""
    },
    {
      "mesh": 4,
      "name": ""
    }
  ],
  "samplers": [
    {
      "magFilter": 9729,
      "minFilter": 9987,
      "wrapS": 10497,
      "wrapT": 10497
    }
  ],
  "scene": 0,
  "scenes": [
    {
      "name": "OSG_Scene",
      "nodes": [
        0
      ]
    }
  ],
  "textures": [
    {
      "sampler": 0,
      "source": 0
    },
    {
      "sampler": 0,
      "source": 1
    },
    {
      "sampler": 0,
      "source": 2
    },
    {
      "sampler": 0,
      "source": 3
    },
    {
      "sampler": 0,
      "source": 4
    },
    {
      "sampler": 0,
      "source": 5
    },
    {
      "sampler": 0,
      "source": 6
    },
    {
      "sampler": 0,
      "source": 7
    },
    {
      "sampler": 0,
      "source": 8
    }
  ]
}

